<svg width="545" height="309" viewBox="0 0 545 309" fill="none" xmlns="http://www.w3.org/2000/svg">
<path d="M440.5 39.4998L439.7 38.8998V38.8998L440.5 39.4998ZM440.5 148.5L439.526 148.729L439.544 148.805L439.574 148.877L440.5 148.5ZM440.5 245L439.934 244.175L440.5 245ZM319.5 224.5L320.29 223.886L319.5 224.5ZM207 174L207.027 173L207 174ZM8.20711 244.293C7.81658 243.902 7.18342 243.902 6.79289 244.293L0.428932 250.657C0.0384078 251.047 0.0384078 251.68 0.428932 252.071C0.819457 252.461 1.45262 252.461 1.84315 252.071L7.5 246.414L13.1569 252.071C13.5474 252.461 14.1805 252.461 14.5711 252.071C14.9616 251.68 14.9616 251.047 14.5711 250.657L8.20711 244.293ZM6.5 245C6.5 246.499 6.57143 248.044 6.71279 249.625L8.70484 249.446C8.56843 247.921 8.5 246.435 8.5 245H6.5ZM8.21425 258.722C8.90255 261.63 9.79516 264.587 10.8867 267.535L12.7623 266.841C11.6985 263.967 10.8296 261.088 10.1605 258.262L8.21425 258.722ZM14.5822 275.965C15.9679 278.679 17.5271 281.34 19.256 283.896L20.9127 282.775C19.2317 280.29 17.7138 277.701 16.3636 275.055L14.5822 275.965ZM24.9177 291.171C26.976 293.468 29.2008 295.614 31.5884 297.56L32.8519 296.009C30.5507 294.134 28.4008 292.061 26.407 289.836L24.9177 291.171ZM39.2488 302.754C41.9342 304.236 44.7754 305.471 47.7678 306.413L48.3678 304.505C45.5083 303.605 42.7894 302.423 40.2149 301.003L39.2488 302.754ZM56.8548 308.271C58.3729 308.422 59.9215 308.5 61.5 308.5V306.5C59.9874 306.5 58.5049 306.425 57.053 306.281L56.8548 308.271ZM61.5 308.5C63.2308 308.5 64.9887 308.184 66.7668 307.597L66.1397 305.698C64.5311 306.229 62.9857 306.5 61.5 306.5V308.5ZM75.9356 302.505C78.4519 300.613 81.0274 298.321 83.6568 295.706L82.2465 294.288C79.6629 296.857 77.1573 299.084 74.7334 300.907L75.9356 302.505ZM90.601 288.239C92.7421 285.783 94.9194 283.159 97.1303 280.402L95.5701 279.151C93.3723 281.892 91.2128 284.493 89.0934 286.925L90.601 288.239ZM103.405 272.365C105.417 269.727 107.456 267.007 109.519 264.229L107.913 263.037C105.854 265.811 103.821 268.523 101.815 271.151L103.405 272.365ZM115.551 256.051C117.538 253.345 119.544 250.607 121.571 247.854L119.96 246.668C117.933 249.423 115.924 252.163 113.939 254.867L115.551 256.051ZM127.616 239.693C129.64 236.984 131.68 234.279 133.737 231.596L132.15 230.379C130.087 233.07 128.041 235.782 126.014 238.497L127.616 239.693ZM139.979 223.601C142.101 220.937 144.239 218.316 146.39 215.755L144.858 214.468C142.695 217.044 140.546 219.679 138.415 222.354L139.979 223.601ZM153.039 208.099C155.336 205.549 157.646 203.089 159.967 200.74L158.545 199.334C156.199 201.708 153.868 204.191 151.553 206.76L153.039 208.099ZM167.28 193.767C169.862 191.462 172.455 189.32 175.056 187.37L173.857 185.77C171.203 187.758 168.567 189.937 165.948 192.275L167.28 193.767ZM183.422 181.811C186.42 180.084 189.422 178.651 192.426 177.551L191.739 175.673C188.613 176.817 185.506 178.302 182.423 180.078L183.422 181.811ZM202.039 175.219C203.684 175.031 205.329 174.956 206.973 174.999L207.027 173C205.285 172.954 203.547 173.034 201.812 173.232L202.039 175.219ZM206.973 174.999C208.56 175.042 210.099 175.147 211.592 175.312L211.812 173.325C210.262 173.153 208.667 173.044 207.027 173L206.973 174.999ZM220.601 177.17C223.608 178.103 226.412 179.315 229.043 180.768L230.01 179.017C227.263 177.5 224.334 176.234 221.193 175.26L220.601 177.17ZM236.635 185.968C238.983 187.91 241.187 190.065 243.278 192.394L244.766 191.058C242.619 188.665 240.344 186.44 237.91 184.427L236.635 185.968ZM249.082 199.648C250.871 202.129 252.584 204.73 254.247 207.418L255.948 206.366C254.266 203.647 252.526 201.005 250.704 198.478L249.082 199.648ZM258.988 215.491C260.51 218.196 262.007 220.949 263.504 223.72L265.264 222.769C263.766 219.996 262.262 217.231 260.731 214.51L258.988 215.491ZM267.982 231.994C269.492 234.756 271.025 237.506 272.602 240.214L274.33 239.207C272.765 236.521 271.242 233.788 269.737 231.035L267.982 231.994ZM277.548 248.268C279.29 250.936 281.105 253.528 283.018 256.01L284.602 254.789C282.726 252.355 280.941 249.807 279.223 247.175L277.548 248.268ZM289.207 263.226C291.422 265.525 293.77 267.67 296.281 269.624L297.509 268.045C295.081 266.157 292.803 264.077 290.648 261.839L289.207 263.226ZM304.289 274.849C305.683 275.596 307.122 276.287 308.608 276.92L309.391 275.08C307.961 274.471 306.576 273.805 305.233 273.086L304.289 274.849ZM308.608 276.92C310.351 277.661 312.076 278.248 313.784 278.689L314.284 276.752C312.677 276.338 311.046 275.784 309.391 275.08L308.608 276.92ZM324.654 279.561C328.274 279.205 331.775 278.21 335.149 276.687L334.326 274.864C331.128 276.308 327.839 277.239 324.459 277.571L324.654 279.561ZM344.381 271.044C347.125 268.922 349.774 266.474 352.326 263.768L350.872 262.396C348.378 265.038 345.806 267.414 343.157 269.461L344.381 271.044ZM359.227 255.573C361.34 252.791 363.379 249.853 365.343 246.807L363.662 245.723C361.722 248.732 359.712 251.627 357.635 254.363L359.227 255.573ZM370.852 237.667C372.598 234.581 374.275 231.435 375.881 228.271L374.098 227.365C372.504 230.506 370.841 233.625 369.111 236.682L370.852 237.667ZM380.525 218.686C382.045 215.404 383.488 212.148 384.852 208.962L383.014 208.175C381.656 211.345 380.221 214.583 378.71 217.845L380.525 218.686ZM388.922 199.136C390.326 195.638 391.62 192.303 392.802 189.209L390.934 188.495C389.755 191.583 388.465 194.906 387.066 198.392L388.922 199.136ZM396.551 179.28C397.246 177.437 397.873 175.788 398.431 174.365L396.569 173.635C396.006 175.071 395.375 176.73 394.68 178.574L396.551 179.28ZM398.431 174.365C398.987 172.946 399.526 171.433 400.038 169.838L398.134 169.226C397.634 170.783 397.109 172.258 396.569 173.635L398.431 174.365ZM402.49 160.539C403.129 157.513 403.654 154.333 404.024 151.062L402.036 150.838C401.674 154.042 401.16 157.16 400.533 160.127L402.49 160.539ZM404.626 141.472C404.66 138.279 404.523 135.056 404.178 131.858L402.19 132.072C402.525 135.185 402.66 138.329 402.626 141.451L404.626 141.472ZM402.481 122.363C401.674 119.223 400.618 116.161 399.273 113.234L397.456 114.068C398.745 116.876 399.764 119.824 400.544 122.861L402.481 122.363ZM394.319 104.89C392.397 102.344 390.165 99.9876 387.588 97.8747L386.32 99.4212C388.77 101.43 390.893 103.671 392.722 106.095L394.319 104.89ZM379.419 92.6263C376.663 91.2628 373.643 90.114 370.339 89.2105L369.811 91.1396C372.998 92.011 375.897 93.1152 378.532 94.4189L379.419 92.6263ZM360.863 87.406C359.31 87.2254 357.707 87.0898 356.053 87.0012L355.946 88.9984C357.56 89.0848 359.121 89.217 360.632 89.3926L360.863 87.406ZM356.053 87.0012C354.408 86.9131 352.794 86.9057 351.212 86.9759L351.301 88.974C352.816 88.9067 354.365 88.9136 355.946 88.9984L356.053 87.0012ZM341.65 88.4228C338.478 89.2641 335.472 90.4462 332.636 91.9314L333.564 93.7031C336.271 92.2855 339.138 91.1583 342.163 90.3559L341.65 88.4228ZM324.6 97.297C322.151 99.3218 319.874 101.602 317.771 104.101L319.301 105.389C321.332 102.975 323.524 100.781 325.874 98.8383L324.6 97.297ZM312.172 111.913C310.534 114.593 309.048 117.433 307.715 120.403L309.54 121.222C310.84 118.324 312.288 115.56 313.879 112.956L312.172 111.913ZM304.288 129.344C303.319 132.338 302.486 135.425 301.792 138.582L303.745 139.012C304.426 135.915 305.242 132.891 306.191 129.959L304.288 129.344ZM300.155 148.002C299.749 151.136 299.473 154.313 299.327 157.515L301.324 157.606C301.468 154.459 301.74 151.337 302.138 148.259L300.155 148.002ZM299.277 167.068C299.389 170.244 299.629 173.425 299.998 176.592L301.985 176.361C301.622 173.247 301.386 170.12 301.276 166.998L299.277 167.068ZM301.498 186.028C302.131 189.159 302.897 192.257 303.798 195.304L305.716 194.737C304.832 191.748 304.08 188.707 303.458 185.632L301.498 186.028ZM306.934 204.339C308.13 207.315 309.468 210.218 310.951 213.029L312.72 212.096C311.271 209.349 309.961 206.508 308.79 203.593L306.934 204.339ZM315.887 221.237C316.79 222.559 317.731 223.852 318.71 225.113L320.29 223.886C319.336 222.658 318.419 221.398 317.539 220.109L315.887 221.237ZM318.71 225.113C319.72 226.413 320.746 227.672 321.788 228.89L323.308 227.59C322.287 226.396 321.28 225.162 320.29 223.886L318.71 225.113ZM328.473 235.963C330.876 238.259 333.341 240.37 335.856 242.305L337.076 240.72C334.617 238.829 332.206 236.764 329.855 234.518L328.473 235.963ZM343.891 247.803C346.719 249.513 349.592 251.028 352.495 252.36L353.329 250.543C350.494 249.241 347.688 247.762 344.926 246.091L343.891 247.803ZM361.559 255.914C364.682 256.94 367.822 257.775 370.961 258.434L371.372 256.477C368.303 255.832 365.235 255.016 362.183 254.014L361.559 255.914ZM380.582 259.925C383.849 260.255 387.095 260.41 390.301 260.407L390.298 258.407C387.159 258.41 383.981 258.259 380.784 257.935L380.582 259.925ZM400.01 259.915C403.293 259.587 406.508 259.101 409.633 258.477L409.242 256.515C406.179 257.127 403.028 257.603 399.811 257.925L400.01 259.915ZM419.062 256.106C422.262 255.13 425.324 254.012 428.217 252.779L427.433 250.939C424.607 252.144 421.612 253.237 418.478 254.193L419.062 256.106ZM436.943 248.426C438.386 247.587 439.762 246.718 441.065 245.825L439.934 244.175C438.674 245.039 437.34 245.882 435.937 246.698L436.943 248.426ZM441.065 245.825C442.51 244.834 443.829 243.641 445.025 242.268L443.516 240.954C442.423 242.21 441.229 243.287 439.934 244.175L441.065 245.825ZM450.309 233.221C451.486 230.215 452.392 226.862 453.037 223.232L451.067 222.883C450.442 226.407 449.568 229.629 448.447 232.492L450.309 233.221ZM454.142 212.997C454.297 209.713 454.288 206.28 454.12 202.73L452.122 202.825C452.288 206.317 452.296 209.688 452.145 212.903L454.142 212.997ZM453.234 192.515C452.823 189.203 452.289 185.822 451.634 182.395L449.67 182.77C450.317 186.156 450.844 189.494 451.249 192.761L453.234 192.515ZM449.414 172.408C448.587 169.142 447.656 165.854 446.623 162.562L444.715 163.161C445.737 166.418 446.657 169.67 447.475 172.899L449.414 172.408ZM443.291 152.888C442.693 151.296 442.071 149.707 441.426 148.123L439.574 148.877C440.212 150.444 440.827 152.016 441.419 153.591L443.291 152.888ZM441.473 148.271C441.141 146.858 440.786 145.348 440.414 143.751L438.466 144.203C438.838 145.804 439.194 147.316 439.526 148.729L441.473 148.271ZM438.364 134.665C437.736 131.78 437.099 128.733 436.477 125.562L434.515 125.947C435.139 129.133 435.779 132.194 436.409 135.09L438.364 134.665ZM434.801 116.412C434.292 113.41 433.815 110.341 433.387 107.231L431.405 107.504C431.837 110.636 432.317 113.726 432.829 116.746L434.801 116.412ZM432.287 98.0095C431.98 94.9286 431.737 91.8369 431.574 88.7607L429.577 88.8666C429.742 91.9768 429.988 95.0993 430.297 98.2076L432.287 98.0095ZM431.342 79.501C431.358 76.365 431.479 73.2758 431.722 70.2624L429.729 70.1014C429.481 73.1708 429.359 76.3105 429.342 79.4905L431.342 79.501ZM432.902 61.123C433.473 58.0114 434.215 55.0327 435.151 52.2239L433.253 51.5918C432.284 54.5011 431.52 57.5718 430.935 60.762L432.902 61.123ZM438.82 43.8875C439.579 42.5582 440.404 41.2937 441.3 40.0998L439.7 38.8998C438.752 40.164 437.881 41.4985 437.083 42.8955L438.82 43.8875ZM441.3 40.0998C442.294 38.7747 443.278 37.4933 444.255 36.2542L442.685 35.0158C441.697 36.2684 440.703 37.5627 439.7 38.8998L441.3 40.0998ZM450.465 28.8488C452.72 26.3384 454.957 24.0507 457.202 21.9688L455.842 20.5023C453.547 22.6305 451.267 24.9624 448.977 27.5124L450.465 28.8488ZM464.607 15.8725C467.258 13.9627 469.959 12.3017 472.753 10.8645L471.839 9.086C468.953 10.5706 466.166 12.2841 463.438 14.2499L464.607 15.8725ZM481.568 7.16023C484.516 6.17523 487.596 5.37702 490.848 4.7446L490.466 2.78138C487.137 3.42889 483.971 4.24836 480.934 5.26331L481.568 7.16023ZM500.372 3.39582C503.426 3.10522 506.628 2.91975 510.003 2.82646L509.948 0.827227C506.535 0.921557 503.287 1.10936 500.182 1.40481L500.372 3.39582ZM519.69 2.79157C522.785 2.84512 526.013 2.95458 529.389 3.11224L529.482 1.11442C526.09 0.956014 522.842 0.845816 519.725 0.791868L519.69 2.79157ZM539.079 3.66292C540.665 3.76685 542.281 3.87849 543.928 3.99721L544.072 2.00238C542.421 1.88339 540.8 1.77144 539.209 1.66719L539.079 3.66292Z" fill="#FD5956"/>
</svg>
